<svg width="24" height="24" viewBox="0 0 24 24" fill="none" xmlns="http://www.w3.org/2000/svg">
<g id="svg-spinners:wind-toy">
<path id="Vector" d="M20.27 4.73997C20.8995 5.31198 21.3703 6.03713 21.6367 6.84494C21.903 7.65274 21.9559 8.51572 21.79 9.34997C21.651 10.4312 21.1832 11.4437 20.4499 12.2503C19.7166 13.057 18.7532 13.6189 17.69 13.86C16.7697 14.1207 15.7947 14.1183 14.8756 13.8532C13.9565 13.5881 13.1301 13.0708 12.49 12.36C13.5409 12.7673 14.6911 12.8439 15.7866 12.5794C16.8822 12.3149 17.8708 11.7219 18.62 10.88C19.4783 10.1394 20.0944 9.15827 20.3886 8.06354C20.6828 6.9688 20.6415 5.81096 20.27 4.73997ZM12.32 11.53C12.7503 10.472 12.84 9.3062 12.5765 8.19489C12.313 7.08358 11.7095 6.08211 10.85 5.32997C10.1123 4.46833 9.12902 3.85248 8.03179 3.56477C6.93455 3.27705 5.77563 3.3312 4.71 3.71997C5.31618 3.07529 6.07768 2.59699 6.92161 2.33086C7.76555 2.06472 8.66367 2.01965 9.53 2.19997C10.5953 2.401 11.5777 2.91124 12.3549 3.66704C13.132 4.42284 13.6694 5.39073 13.9 6.44997C14.1099 7.36079 14.0742 8.311 13.7966 9.20351C13.519 10.096 13.0094 10.8988 12.32 11.53ZM19.2 20.29C18.6151 20.9332 17.8701 21.41 17.041 21.6717C16.2119 21.9335 15.3282 21.9708 14.48 21.78C13.436 21.6126 12.4656 21.1379 11.6926 20.4166C10.9196 19.6952 10.3791 18.7599 10.14 17.73C9.87788 16.8083 9.8755 15.8322 10.1331 14.9093C10.3908 13.9864 10.8984 13.1526 11.6 12.5C11.2061 13.5551 11.1395 14.7045 11.4088 15.798C11.6782 16.8916 12.2711 17.8785 13.11 18.63C13.843 19.4835 14.815 20.0978 15.9005 20.3937C16.986 20.6896 18.1352 20.6535 19.2 20.29ZM3.79 19.38C3.05732 18.7168 2.5296 17.858 2.26914 16.9047C2.00867 15.9514 2.02632 14.9435 2.32 14C2.58122 12.9423 3.16202 11.9909 3.98334 11.2751C4.80465 10.5594 5.82658 10.1141 6.91 9.99997C7.74732 9.85722 8.60719 9.93012 9.40852 10.2118C10.2098 10.4935 10.9262 10.9747 11.49 11.61C10.3934 11.1859 9.19039 11.1211 8.05453 11.4248C6.91867 11.7285 5.90861 12.3851 5.17 13.3C4.34694 14.0514 3.77356 15.0368 3.52687 16.1236C3.28018 17.2105 3.372 18.3468 3.79 19.38ZM12.23 12C13.3035 11.6825 14.2431 11.0213 14.9043 10.118C15.5656 9.2147 15.9119 8.11923 15.89 6.99997C16.0656 5.79181 15.852 4.55912 15.2803 3.48041C14.7086 2.40169 13.8084 1.53295 12.71 0.999971C13.5835 0.963448 14.4513 1.15661 15.2269 1.56018C16.0025 1.96375 16.6587 2.56363 17.13 3.29997C17.7666 4.14555 18.1306 5.16497 18.1734 6.22253C18.2163 7.2801 17.9361 8.32563 17.37 9.21997C16.8703 10.1276 16.1199 10.8724 15.2085 11.3653C14.2971 11.8582 13.2632 12.0786 12.23 12ZM11.76 12C10.6738 12.3282 9.72538 13.004 9.06054 13.9236C8.3957 14.8432 8.05121 15.9556 8.08 17.09C7.92538 18.269 8.15147 19.4667 8.72531 20.5082C9.29915 21.5498 10.1907 22.3807 11.27 22.88C10.27 23.23 8.37 22.42 7.27 21.2C6.52861 20.384 6.04903 19.3645 5.89326 18.2731C5.73749 17.1817 5.9127 16.0686 6.39624 15.0779C6.87977 14.0871 7.64939 13.2642 8.6056 12.7155C9.56181 12.1668 10.6606 11.9175 11.76 12ZM23 12.63C23.042 13.5237 22.8467 14.4127 22.4339 15.2066C22.0212 16.0004 21.4057 16.6709 20.65 17.15C19.8001 17.7757 18.7808 18.1297 17.726 18.1654C16.6712 18.2011 15.6303 17.9168 14.74 17.35C13.8991 16.8776 13.2048 16.1824 12.7337 15.3407C12.2626 14.4991 12.0329 13.5438 12.07 12.58C12.5201 13.6323 13.2867 14.5184 14.2633 15.1152C15.24 15.7119 16.3782 15.9897 17.52 15.91C18.6607 15.9986 19.8008 15.7306 20.7825 15.143C21.7643 14.5554 22.5391 13.6772 23 12.63ZM1 11.23C0.968499 10.3247 1.18351 9.42786 1.62207 8.63528C2.06063 7.8427 2.70627 7.18415 3.49 6.72997C4.344 6.14664 5.35176 5.8296 6.38591 5.81892C7.42005 5.80824 8.43415 6.10441 9.3 6.66997C10.1207 7.15275 10.7962 7.8477 11.2555 8.68179C11.7148 9.51588 11.9409 10.4583 11.91 11.41C11.463 10.375 10.712 9.50043 9.7565 8.90214C8.80102 8.30385 7.68624 8.01015 6.56 8.05997C5.42262 7.97252 4.28511 8.22775 3.29412 8.79276C2.30313 9.35776 1.50409 10.2066 1 11.23Z" fill="black"/>
</g>
</svg>
