<svg width="32" height="32" viewBox="0 0 32 32" fill="none" xmlns="http://www.w3.org/2000/svg">
<g id="fa6-solid:cloud-rain" clip-path="url(#clip0_134_60)">
<path id="Vector" d="M6 20C2.6875 20 0 17.3125 0 14C0 11.3438 1.725 9.0875 4.11875 8.3C4.04375 7.88125 4 7.44375 4 7C4 3.13125 7.13125 0 11 0C13.6937 0 16.0313 1.51875 17.2 3.75C18.1188 2.68125 19.4813 2 21 2C23.7625 2 26 4.2375 26 7C26 7.34375 25.9625 7.675 25.9 8H26C29.3125 8 32 10.6875 32 14C32 17.3125 29.3125 20 26 20H6ZM5.575 23.25C5.65625 23.0938 5.81875 23 6 23C6.18125 23 6.3375 23.0938 6.425 23.25L8.61875 27.2875C8.875 27.7563 9.00625 28.275 9.00625 28.8062V28.9937C9.00625 30.65 7.6625 31.9937 6.00625 31.9937C4.35 31.9937 3.00625 30.65 3.00625 28.9937V28.8062C3.00625 28.275 3.1375 27.75 3.39375 27.2875L5.575 23.25ZM15.575 23.25C15.6562 23.0938 15.8187 23 16 23C16.1813 23 16.3375 23.0938 16.425 23.25L18.6187 27.2875C18.875 27.7563 19.0063 28.275 19.0063 28.8062V28.9937C19.0063 30.65 17.6625 31.9937 16.0063 31.9937C14.35 31.9937 13.0063 30.65 13.0063 28.9937V28.8062C13.0063 28.275 13.1375 27.75 13.3938 27.2875L15.575 23.25ZM23.3813 27.2875L25.575 23.25C25.6563 23.0938 25.8187 23 26 23C26.1813 23 26.3375 23.0938 26.425 23.25L28.6187 27.2875C28.875 27.7563 29.0063 28.275 29.0063 28.8062V28.9937C29.0063 30.65 27.6625 31.9937 26.0063 31.9937C24.35 31.9937 23.0063 30.65 23.0063 28.9937V28.8062C23.0063 28.275 23.1375 27.75 23.3937 27.2875H23.3813Z" fill="black"/>
</g>
<defs>
<clipPath id="clip0_134_60">
<rect width="32" height="32" fill="white"/>
</clipPath>
</defs>
</svg>
