<svg width="24" height="24" viewBox="0 0 24 24" fill="none" xmlns="http://www.w3.org/2000/svg">
<g id="solar:temperature-line-duotone">
<g id="Group">
<path id="Vector" opacity="0.5" d="M12 22C13.1395 22.0002 14.251 21.6464 15.1808 20.9876C16.1105 20.3288 16.8127 19.3975 17.1903 18.3223C17.5679 17.2472 17.6021 16.0813 17.2884 14.9858C16.9747 13.8903 16.3285 12.9193 15.439 12.207C15.306 12.1058 15.1975 11.9759 15.1215 11.827C15.0455 11.6782 15.004 11.5141 15 11.347V5C15 4.20435 14.6839 3.44129 14.1213 2.87868C13.5587 2.31607 12.7957 2 12 2C11.2044 2 10.4413 2.31607 9.87869 2.87868C9.31608 3.44129 9.00001 4.20435 9.00001 5V11.348C9.00001 11.686 8.82501 11.996 8.56101 12.208C7.67196 12.9204 7.02608 13.8913 6.7126 14.9867C6.39913 16.082 6.43352 17.2476 6.81104 18.3225C7.18855 19.3974 7.89056 20.3286 8.82007 20.9873C9.74958 21.6461 10.8607 21.9999 12 22Z" stroke="black" stroke-width="1.5"/>
<path id="Vector_2" d="M12 14C11.337 14 10.7011 14.2634 10.2322 14.7322C9.76339 15.2011 9.5 15.837 9.5 16.5C9.5 17.163 9.76339 17.7989 10.2322 18.2678C10.7011 18.7366 11.337 19 12 19C12.663 19 13.2989 18.7366 13.7678 18.2678C14.2366 17.7989 14.5 17.163 14.5 16.5C14.5 15.837 14.2366 15.2011 13.7678 14.7322C13.2989 14.2634 12.663 14 12 14ZM12 14V5" stroke="black" stroke-width="1.5" stroke-linecap="round"/>
</g>
</g>
</svg>
